<svg xmlns="http://www.w3.org/2000/svg" viewBox="0 0 430 430"><defs></defs><g id="Layer_2" data-name="Layer 2"><g id="Layer_1-2" data-name="Layer 1"><path fill="#ffffff" d="M429.74,204.3A11.71,11.71,0,0,0,418,193.21H300.9l87.94-87.93a11.64,11.64,0,0,0,1.34-15A214.38,214.38,0,0,0,356,52.67a11.63,11.63,0,0,0-15.82.66L296.28,97.22l-45.66,45.66V13.12A11.78,11.78,0,0,0,240.14,1.46a216.83,216.83,0,0,0-50.24,0,11.78,11.78,0,0,0-10.47,11.66V142.88L133.77,97.22,89.87,53.35a11.74,11.74,0,0,0-16-.53A215.58,215.58,0,0,0,40,90.13a11.75,11.75,0,0,0,1.21,15.16L87,151.06l42.15,42.15H12A11.71,11.71,0,0,0,.26,204.3C.08,207.83,0,211.39,0,215a216.74,216.74,0,0,0,3.66,39.76,11.78,11.78,0,0,0,11.55,9.67h98c14.68,0,28.17,7,37.6,18.28a83.55,83.55,0,0,0,128.27,0c9.42-11.24,22.92-18.28,37.6-18.28h98.08a11.78,11.78,0,0,0,11.55-9.67A216.74,216.74,0,0,0,430,215C430,211.39,429.92,207.83,429.74,204.3Z"/><path fill="#ffffff" d="M395.1,310.16H328.46a15.21,15.21,0,0,0-10.94,4.64,145.6,145.6,0,0,1-24.26,20c-35.8,23.51-71.46,24-78.29,24s-42.53-.52-78.31-24.05a145,145,0,0,1-24.18-20,15.25,15.25,0,0,0-10.94-4.64H34.9a7.65,7.65,0,0,0-6.66,11.41A214.73,214.73,0,0,0,207.35,429.85c2.49.1,5.08.15,7.62.15s5.14-.05,7.63-.15,5.09-.21,7.58-.41A214.67,214.67,0,0,0,401.77,321.55,7.64,7.64,0,0,0,395.1,310.16Z"/></g></g></svg>